if (_typeface_js && _typeface_js.loadFace) _typeface_js.loadFace({"glyphs":{"ο":{"x_min":0,"x_max":764,"ha":863,"o":"m 380 -25 q 105 87 211 -25 q 0 372 0 200 q 104 660 0 545 q 380 775 209 775 q 658 659 552 775 q 764 372 764 544 q 658 87 764 200 q 380 -25 552 -25 m 379 141 q 515 216 466 141 q 557 373 557 280 q 515 530 557 465 q 379 607 466 607 q 245 530 294 607 q 204 373 204 465 q 245 218 204 283 q 379 141 294 141 "},"Τ":{"x_min":0,"x_max":808,"ha":877,"o":"m 808 831 l 508 831 l 508 0 l 298 0 l 298 831 l 0 831 l 0 1013 l 808 1013 l 808 831 "},"Π":{"x_min":0,"x_max":810,"ha":923,"o":"m 810 0 l 599 0 l 599 837 l 208 837 l 208 0 l 0 0 l 0 1013 l 810 1013 l 810 0 "},"ΐ":{"x_min":-162,"x_max":364,"ha":364,"o":"m 364 810 l 235 810 l 235 952 l 364 952 l 364 810 m 301 1064 l 87 810 l -11 810 l 124 1064 l 301 1064 m -33 810 l -162 810 l -162 952 l -33 952 l -33 810 m 201 0 l 1 0 l 1 749 l 201 749 l 201 0 "},"δ":{"x_min":6,"x_max":733,"ha":836,"o":"m 733 353 q 631 77 733 178 q 354 -24 530 -24 q 101 75 197 -24 q 6 334 6 175 q 89 582 6 481 q 324 691 178 691 q 67 864 202 788 l 67 1013 l 670 1013 l 670 856 l 349 856 q 532 729 461 789 q 674 567 625 652 q 733 353 733 466 m 420 551 q 259 497 321 551 q 198 345 198 442 q 238 209 198 268 q 357 141 284 141 q 485 204 438 141 q 527 345 527 261 q 500 467 527 411 q 420 551 474 522 "},"έ":{"x_min":17,"x_max":653,"ha":742,"o":"m 653 259 q 566 49 653 123 q 340 -25 479 -25 q 103 39 189 -25 q 17 196 17 104 q 46 298 17 249 q 135 389 75 348 q 58 456 86 418 q 25 552 25 502 q 120 717 25 653 q 322 776 208 776 q 537 710 456 776 q 625 508 625 639 l 446 508 q 416 585 446 563 q 327 608 386 608 q 253 590 292 608 q 215 544 215 573 q 252 470 215 490 q 336 455 280 455 q 369 455 347 455 q 400 455 391 455 l 400 308 l 329 308 q 247 291 280 308 q 205 223 205 269 q 255 154 205 172 q 345 143 285 143 q 426 174 398 143 q 454 259 454 206 l 653 259 m 579 1039 l 377 824 l 278 824 l 401 1039 l 579 1039 "},"Κ":{"x_min":0,"x_max":899.671875,"ha":969,"o":"m 899 0 l 646 0 l 316 462 l 208 355 l 208 0 l 0 0 l 0 1013 l 208 1013 l 208 596 l 603 1013 l 863 1013 l 460 603 l 899 0 "},"ω":{"x_min":0,"x_max":945,"ha":1051,"o":"m 565 323 l 565 289 q 577 190 565 221 q 651 142 597 142 q 718 189 694 142 q 742 365 742 237 q 702 565 742 462 q 609 748 670 650 l 814 748 q 910 547 876 650 q 945 337 945 444 q 874 96 945 205 q 668 -29 793 -29 q 551 0 608 -29 q 470 78 495 30 q 390 0 444 28 q 276 -29 337 -29 q 69 96 149 -29 q 0 337 0 204 q 36 553 0 444 q 130 748 68 650 l 334 748 q 241 565 273 650 q 203 365 203 461 q 219 222 203 279 q 293 142 243 142 q 360 183 342 142 q 373 271 373 211 q 372 298 372 285 q 372 323 372 311 l 372 528 l 565 528 l 565 323 "},"ƒ":{"x_min":-45.71875,"x_max":440,"ha":525,"o":"m 440 608 l 316 608 l 150 -278 l -45 -278 l 121 608 l 14 608 l 14 748 l 121 748 q 159 948 121 893 q 344 1016 208 1016 l 440 1016 l 440 855 l 377 855 q 326 841 338 855 q 314 796 314 827 q 314 773 314 785 q 315 748 314 760 l 440 748 l 440 608 "},"ό":{"x_min":0,"x_max":764,"ha":863,"o":"m 380 -25 q 105 87 211 -25 q 0 372 0 200 q 104 660 0 545 q 380 775 209 775 q 658 659 552 775 q 764 372 764 544 q 658 87 764 200 q 380 -25 552 -25 m 379 141 q 515 216 466 141 q 557 373 557 280 q 515 530 557 465 q 379 607 466 607 q 245 530 294 607 q 204 373 204 465 q 245 218 204 283 q 379 141 294 141 m 593 1038 l 391 824 l 293 824 l 415 1038 l 593 1038 "},"ϋ":{"x_min":0,"x_max":656,"ha":767,"o":"m 535 810 l 406 810 l 406 952 l 535 952 l 535 810 m 271 810 l 142 810 l 142 952 l 271 952 l 271 810 m 656 416 q 568 55 656 145 q 326 -25 490 -25 q 59 97 137 -25 q 0 369 0 191 l 0 748 l 200 748 l 200 369 q 216 222 200 268 q 326 141 245 141 q 440 247 411 141 q 456 422 456 304 l 456 748 l 656 748 l 656 416 "},"ώ":{"x_min":0,"x_max":945,"ha":1051,"o":"m 565 528 l 372 528 l 372 323 q 372 298 372 311 q 373 271 372 285 q 360 183 373 211 q 293 142 342 142 q 219 222 243 142 q 203 365 203 279 q 241 565 203 461 q 334 748 273 650 l 130 748 q 36 553 68 650 q 0 337 0 444 q 69 96 0 204 q 276 -29 149 -29 q 390 0 337 -29 q 470 78 444 28 q 551 0 495 30 q 668 -29 608 -29 q 874 96 793 -29 q 945 337 945 205 q 910 547 945 444 q 814 748 876 650 l 609 748 q 702 565 670 650 q 742 365 742 462 q 718 189 742 237 q 651 142 694 142 q 577 190 597 142 q 565 289 565 221 l 565 323 l 565 528 m 718 1039 l 516 824 l 417 824 l 540 1039 l 718 1039 "},"∙":{"x_min":0,"x_max":207,"ha":304,"o":"m 207 528 l 0 528 l 0 735 l 207 735 l 207 528 "},"Ω":{"x_min":0,"x_max":1010,"ha":1109,"o":"m 1010 0 l 591 0 l 591 199 q 718 368 672 264 q 765 580 765 471 q 699 778 765 706 q 505 855 630 855 q 311 773 380 855 q 243 563 243 691 q 289 359 243 457 q 419 199 335 262 l 419 0 l 0 0 l 0 176 l 202 176 q 77 355 123 250 q 32 569 32 459 q 165 908 32 776 q 505 1040 298 1040 q 845 912 712 1040 q 978 578 978 785 q 932 362 978 467 q 806 176 887 256 l 1010 176 l 1010 0 "},"ύ":{"x_min":0,"x_max":656,"ha":767,"o":"m 656 416 q 568 55 656 145 q 326 -25 490 -25 q 59 97 137 -25 q 0 369 0 191 l 0 748 l 200 748 l 200 369 q 216 222 200 269 q 325 141 244 141 q 440 247 411 141 q 456 422 456 304 l 456 748 l 656 748 l 656 416 m 579 1038 l 378 824 l 279 824 l 401 1038 l 579 1038 "},"™":{"x_min":0,"x_max":952,"ha":1063,"o":"m 404 921 l 254 921 l 254 505 l 148 505 l 148 921 l 0 921 l 0 1013 l 404 1013 l 404 921 m 952 506 l 853 506 l 853 915 l 750 506 l 643 506 l 539 915 l 539 506 l 442 506 l 442 1013 l 595 1013 l 696 626 l 796 1013 l 952 1013 l 952 506 "},"ή":{"x_min":0,"x_max":669,"ha":779,"o":"m 669 -277 l 469 -277 l 469 390 q 448 526 469 473 q 348 606 417 606 q 244 553 288 606 q 201 441 201 501 l 201 0 l 0 0 l 0 749 l 201 749 l 201 665 q 301 744 244 715 q 423 774 359 774 q 606 685 538 774 q 669 485 669 603 l 669 -277 m 495 1039 l 294 824 l 195 824 l 317 1039 l 495 1039 "},"Θ":{"x_min":0,"x_max":993,"ha":1092,"o":"m 497 -29 q 133 127 272 -29 q 0 505 0 277 q 133 883 0 733 q 497 1040 272 1040 q 861 883 722 1040 q 993 505 993 733 q 861 127 993 277 q 497 -29 722 -29 m 497 154 q 711 266 631 154 q 782 506 782 367 q 712 746 782 648 q 497 858 634 858 q 281 746 361 858 q 211 506 211 648 q 280 266 211 365 q 497 154 359 154 m 677 430 l 317 430 l 317 593 l 677 593 l 677 430 "},"Ι":{"x_min":42,"x_max":250,"ha":413,"o":"m 250 0 l 42 0 l 42 1013 l 250 1013 l 250 0 "},"Ύ":{"x_min":-0.21875,"x_max":1211.15625,"ha":1289,"o":"m 1211 1013 l 907 377 l 907 1 l 697 1 l 697 377 l 374 1013 l 583 1013 l 802 576 l 1001 1013 l 1211 1013 m 313 1035 l 98 781 l 0 781 l 135 1035 l 313 1035 "},"Ν":{"x_min":0,"x_max":833.171875,"ha":946,"o":"m 833 0 l 617 0 l 206 696 l 206 0 l 0 0 l 0 1013 l 217 1013 l 629 315 l 629 1013 l 833 1013 l 833 0 "},"Ε":{"x_min":0,"x_max":761.546875,"ha":824,"o":"m 761 1 l 0 1 l 0 1013 l 735 1013 l 735 837 l 206 837 l 206 622 l 690 622 l 690 447 l 206 447 l 206 187 l 761 187 l 761 1 "},"ς":{"x_min":0,"x_max":731.953125,"ha":768,"o":"m 731 449 l 547 449 q 486 571 532 533 q 369 610 440 610 q 245 537 293 610 q 204 394 204 473 q 322 186 204 239 q 540 133 430 160 q 660 -14 660 98 q 644 -141 660 -80 q 596 -277 628 -202 l 423 -277 q 458 -185 448 -214 q 475 -88 475 -133 q 352 0 475 -27 q 123 80 181 39 q 0 382 0 171 q 98 660 0 548 q 368 776 202 776 q 622 682 513 776 q 731 449 731 589 "},"Ψ":{"x_min":0,"x_max":995,"ha":1085,"o":"m 995 698 q 923 340 995 437 q 590 199 841 227 l 590 0 l 404 0 l 404 199 q 71 340 153 227 q 0 698 0 437 l 0 1013 l 188 1013 l 188 694 q 212 472 188 524 q 404 383 254 383 l 404 1013 l 590 1013 l 590 383 q 781 472 740 383 q 807 694 807 524 l 807 1013 l 995 1013 l 995 698 "},"σ":{"x_min":0,"x_max":851,"ha":940,"o":"m 851 594 l 712 594 q 761 369 761 485 q 658 83 761 191 q 379 -25 555 -25 q 104 87 208 -25 q 0 372 0 200 q 103 659 0 544 q 377 775 207 775 q 463 762 407 775 q 548 750 520 750 l 851 750 l 851 594 m 379 141 q 515 216 466 141 q 557 373 557 280 q 515 530 557 465 q 379 608 465 608 q 244 530 293 608 q 203 373 203 465 q 244 218 203 283 q 379 141 293 141 "},"ζ":{"x_min":0,"x_max":622,"ha":701,"o":"m 622 -29 q 604 -157 622 -96 q 551 -278 587 -217 l 373 -278 q 426 -180 407 -229 q 446 -81 446 -132 q 421 -23 446 -38 q 354 -9 397 -9 q 316 -9 341 -9 q 280 -9 291 -9 q 74 71 149 -9 q 0 284 0 151 q 87 596 0 438 q 291 856 162 730 l 47 856 l 47 1013 l 593 1013 l 593 904 q 318 660 422 800 q 197 318 197 497 q 306 141 197 169 q 511 128 408 128 q 622 -29 622 106 "},"θ":{"x_min":0,"x_max":714,"ha":817,"o":"m 356 1022 q 633 833 534 1022 q 714 486 714 679 q 634 148 714 288 q 354 -25 536 -25 q 79 147 175 -25 q 0 481 0 288 q 79 831 0 679 q 356 1022 177 1022 m 509 590 q 475 763 509 687 q 351 862 430 862 q 233 763 272 862 q 204 590 204 689 l 509 590 m 509 440 l 204 440 q 233 251 204 337 q 355 131 275 131 q 477 248 434 131 q 509 440 509 337 "},"Γ":{"x_min":0,"x_max":703.84375,"ha":741,"o":"m 703 837 l 208 837 l 208 0 l 0 0 l 0 1013 l 703 1013 l 703 837 "},"Ο":{"x_min":0,"x_max":994,"ha":1091,"o":"m 497 -29 q 133 127 272 -29 q 0 505 0 277 q 131 883 0 733 q 497 1040 270 1040 q 860 883 721 1040 q 994 505 994 733 q 862 127 994 277 q 497 -29 723 -29 m 497 154 q 710 266 631 154 q 780 506 780 365 q 710 745 780 647 q 497 857 631 857 q 283 747 361 857 q 213 506 213 647 q 282 266 213 365 q 497 154 361 154 "},"Ώ":{"x_min":0.4375,"x_max":1190,"ha":1289,"o":"m 1190 0 l 771 0 l 771 199 q 898 369 850 263 q 946 580 946 474 q 880 778 946 706 q 686 855 811 855 q 492 773 561 855 q 424 563 424 691 q 470 360 424 457 q 600 199 516 262 l 600 0 l 181 0 l 181 176 l 383 176 q 258 355 304 251 q 213 569 213 459 q 346 908 213 776 q 686 1040 479 1040 q 1026 912 893 1040 q 1159 578 1159 785 q 1113 362 1159 467 q 987 176 1068 256 l 1190 176 l 1190 0 m 314 1091 l 99 838 l 0 838 l 136 1091 l 314 1091 "},"Έ":{"x_min":-0.109375,"x_max":1172.546875,"ha":1235,"o":"m 1172 1 l 411 1 l 411 1013 l 1146 1013 l 1146 837 l 617 837 l 617 622 l 1101 622 l 1101 447 l 617 447 l 617 187 l 1172 187 l 1172 1 m 313 1036 l 98 781 l 0 781 l 136 1036 l 313 1036 "},"ι":{"x_min":42,"x_max":242,"ha":389,"o":"m 242 0 l 42 0 l 42 749 l 242 749 l 242 0 "},"Ϊ":{"x_min":-55,"x_max":342,"ha":503,"o":"m 342 1046 l 186 1046 l 186 1215 l 342 1215 l 342 1046 m 102 1046 l -55 1046 l -55 1215 l 102 1215 l 102 1046 m 250 0 l 42 0 l 42 1013 l 250 1013 l 250 0 "},"Ρ":{"x_min":0,"x_max":771,"ha":838,"o":"m 208 362 l 208 0 l 0 0 l 0 1013 l 450 1013 q 682 920 593 1013 q 771 682 771 827 q 687 453 771 545 q 466 362 604 362 l 208 362 m 422 837 l 209 837 l 209 545 l 411 545 q 525 580 480 545 q 571 684 571 615 q 527 792 571 748 q 422 837 484 837 "},"Ά":{"x_min":0,"x_max":995.828125,"ha":1072,"o":"m 313 1035 l 98 781 l 0 781 l 136 1035 l 313 1035 m 995 0 l 776 0 l 708 209 l 315 209 l 247 0 l 29 0 l 390 1013 l 629 1013 l 995 0 m 652 377 l 509 810 l 369 377 l 652 377 "},"ε":{"x_min":17,"x_max":653,"ha":742,"o":"m 653 259 q 566 49 653 123 q 340 -25 479 -25 q 103 39 189 -25 q 17 196 17 104 q 46 298 17 249 q 135 389 75 348 q 58 456 86 418 q 25 552 25 502 q 120 717 25 653 q 322 776 208 776 q 537 710 456 776 q 625 508 625 639 l 446 508 q 416 585 446 563 q 327 608 386 608 q 253 590 292 608 q 215 544 215 573 q 252 470 215 490 q 336 455 280 455 q 369 455 347 455 q 400 455 391 455 l 400 308 l 329 308 q 247 291 280 308 q 205 223 205 269 q 255 154 205 172 q 345 143 285 143 q 426 174 398 143 q 454 259 454 206 l 653 259 "},"Δ":{"x_min":0,"x_max":981.953125,"ha":1057,"o":"m 981 1 l 0 1 l 386 1013 l 594 1013 l 981 1 m 715 176 l 490 765 l 266 176 l 715 176 "},"΅":{"x_min":57,"x_max":583,"ha":752,"o":"m 583 810 l 454 810 l 454 952 l 583 952 l 583 810 m 520 1064 l 305 810 l 206 810 l 342 1064 l 520 1064 m 186 810 l 57 810 l 57 952 l 186 952 l 186 810 "},"ρ":{"x_min":0,"x_max":722,"ha":810,"o":"m 364 -17 q 271 0 313 -17 q 194 48 230 16 l 194 -277 l 0 -277 l 0 370 q 87 656 0 548 q 358 775 183 775 q 626 655 524 775 q 722 372 722 541 q 621 95 722 208 q 364 -17 520 -17 m 360 607 q 237 529 280 607 q 200 377 200 463 q 234 229 200 292 q 355 147 277 147 q 467 210 419 147 q 515 374 515 273 q 471 537 515 468 q 360 607 428 607 "},"Φ":{"x_min":0,"x_max":949,"ha":1032,"o":"m 565 0 l 384 0 l 384 121 q 111 230 222 121 q 0 508 0 340 q 112 775 0 669 q 384 892 219 875 l 384 1013 l 565 1013 l 565 892 q 836 776 732 875 q 949 507 949 671 q 838 231 949 341 q 565 121 727 121 l 565 0 m 565 285 q 701 352 649 285 q 753 508 753 419 q 702 659 753 597 q 565 729 652 721 l 565 285 m 384 285 l 384 729 q 244 661 296 718 q 193 517 193 604 q 246 356 193 428 q 384 285 299 285 "},"Σ":{"x_min":0,"x_max":772,"ha":848,"o":"m 772 1 l 0 1 l 0 141 l 367 527 l 18 863 l 18 1013 l 740 1013 l 740 837 l 315 837 l 619 524 l 298 176 l 772 176 l 772 1 "},"Α":{"x_min":0,"x_max":966.671875,"ha":1043,"o":"m 966 1 l 747 1 l 679 209 l 286 209 l 218 1 l 0 1 l 361 1013 l 600 1013 l 966 1 m 623 377 l 480 810 l 340 377 l 623 377 "},"Η":{"x_min":0,"x_max":838,"ha":951,"o":"m 838 0 l 628 0 l 628 450 l 210 450 l 210 0 l 0 0 l 0 1013 l 210 1013 l 210 635 l 628 635 l 628 1013 l 838 1013 l 838 0 "},"λ":{"x_min":0,"x_max":701.390625,"ha":775,"o":"m 701 0 l 491 0 l 345 444 l 195 0 l 0 0 l 238 697 l 131 1013 l 334 1013 l 701 0 "},"τ":{"x_min":0,"x_max":618,"ha":699,"o":"m 618 593 l 409 593 l 409 0 l 210 0 l 210 593 l 0 593 l 0 749 l 618 749 l 618 593 "},"ν":{"x_min":0,"x_max":740.28125,"ha":828,"o":"m 740 749 l 473 0 l 266 0 l 0 749 l 222 749 l 373 211 l 529 749 l 740 749 "},"ξ":{"x_min":0,"x_max":640,"ha":715,"o":"m 640 -13 q 619 -157 640 -84 q 564 -298 599 -230 l 399 -298 q 443 -194 433 -223 q 468 -84 468 -126 q 440 -26 468 -42 q 368 -10 412 -10 q 333 -10 355 -10 q 302 -10 311 -10 q 91 62 179 -10 q 0 260 0 140 q 56 426 0 354 q 201 530 109 493 q 106 595 144 553 q 65 699 65 642 q 94 787 65 747 q 169 856 123 828 l 22 856 l 22 1013 l 597 1013 l 597 856 l 497 856 q 345 840 398 856 q 257 736 257 812 q 366 614 257 642 q 553 602 416 602 l 553 446 l 513 446 q 313 425 379 446 q 199 284 199 389 q 312 162 199 185 q 525 136 418 148 q 640 -13 640 105 "},"Ή":{"x_min":-0.109375,"x_max":1249,"ha":1362,"o":"m 1249 0 l 1039 0 l 1039 450 l 621 450 l 621 0 l 411 0 l 411 1013 l 621 1013 l 621 635 l 1039 635 l 1039 1013 l 1249 1013 l 1249 0 m 313 1035 l 98 781 l 0 781 l 136 1035 l 313 1035 "},"Ό":{"x_min":-0.171875,"x_max":1174,"ha":1271,"o":"m 676 -29 q 312 127 451 -29 q 179 505 179 277 q 311 883 179 733 q 676 1040 449 1040 q 1040 883 901 1040 q 1174 505 1174 733 q 1041 127 1174 277 q 676 -29 903 -29 m 676 154 q 890 266 811 154 q 961 506 961 366 q 891 745 961 648 q 676 857 812 857 q 462 747 541 857 q 392 506 392 648 q 461 266 392 365 q 676 154 540 154 m 314 1035 l 98 781 l 0 781 l 135 1035 l 314 1035 "},"Μ":{"x_min":0,"x_max":1020,"ha":1133,"o":"m 1020 0 l 824 0 l 824 818 l 618 0 l 402 0 l 194 818 l 194 0 l 0 0 l 0 1013 l 309 1013 l 509 241 l 708 1013 l 1020 1013 l 1020 0 "},"β":{"x_min":0,"x_max":703,"ha":789,"o":"m 510 538 q 651 428 600 501 q 703 262 703 356 q 617 53 703 136 q 404 -29 532 -29 q 199 51 279 -29 l 199 -277 l 0 -277 l 0 627 q 77 911 0 812 q 343 1021 163 1021 q 551 957 464 1021 q 649 769 649 886 q 613 638 649 697 q 510 538 577 579 m 344 136 q 452 181 408 136 q 497 291 497 227 q 434 409 497 369 q 299 444 381 444 l 299 600 q 407 634 362 600 q 452 731 452 669 q 417 820 452 784 q 329 857 382 857 q 217 775 246 857 q 199 622 199 725 l 199 393 q 221 226 199 284 q 344 136 254 136 "},"Λ":{"x_min":0,"x_max":894.453125,"ha":974,"o":"m 894 1 l 666 1 l 447 757 l 225 1 l 0 1 l 344 1013 l 547 1013 l 894 1 "},"ΰ":{"x_min":0,"x_max":656,"ha":767,"o":"m 583 810 l 454 810 l 454 952 l 583 952 l 583 810 m 186 810 l 57 810 l 57 952 l 186 952 l 186 810 m 516 1039 l 315 824 l 216 824 l 338 1039 l 516 1039 m 656 416 q 568 55 656 145 q 326 -25 490 -25 q 59 97 137 -25 q 0 369 0 191 l 0 748 l 200 748 l 200 369 q 216 222 200 269 q 325 141 244 141 q 440 247 411 141 q 456 422 456 304 l 456 748 l 656 748 l 656 416 "},"Υ":{"x_min":-0.21875,"x_max":836.171875,"ha":914,"o":"m 836 1013 l 532 377 l 532 1 l 322 1 l 322 377 l 0 1013 l 208 1013 l 427 577 l 626 1013 l 836 1013 "},"α":{"x_min":-1,"x_max":722,"ha":835,"o":"m 722 0 l 530 0 l 530 101 q 433 8 491 41 q 304 -25 375 -25 q 72 104 157 -25 q -1 372 -1 216 q 72 643 -1 530 q 308 775 158 775 q 433 744 375 775 q 528 656 491 713 l 528 750 l 722 750 l 722 0 m 361 601 q 233 527 277 601 q 196 375 196 464 q 232 224 196 288 q 358 144 277 144 q 487 217 441 144 q 528 370 528 281 q 489 523 528 457 q 361 601 443 601 "},"γ":{"x_min":0.0625,"x_max":729.234375,"ha":815,"o":"m 729 748 l 457 37 l 457 -278 l 257 -278 l 257 37 q 218 155 243 95 q 170 274 194 214 l 0 748 l 207 748 l 363 284 l 522 748 l 729 748 "},"Χ":{"x_min":0,"x_max":894.453125,"ha":978,"o":"m 894 0 l 654 0 l 445 351 l 238 0 l 0 0 l 316 516 l 0 1013 l 238 1013 l 445 660 l 652 1013 l 894 1013 l 577 519 l 894 0 "},"Ξ":{"x_min":0,"x_max":751,"ha":800,"o":"m 733 827 l 5 827 l 5 1013 l 733 1013 l 733 827 m 682 432 l 65 432 l 65 617 l 682 617 l 682 432 m 751 1 l 0 1 l 0 184 l 751 184 l 751 1 "},"μ":{"x_min":0,"x_max":647,"ha":754,"o":"m 647 0 l 477 0 l 477 67 q 411 9 448 30 q 330 -12 374 -12 q 261 3 295 -12 q 199 42 226 18 l 199 -278 l 0 -278 l 0 748 l 199 748 l 199 357 q 216 221 199 267 q 322 151 244 151 q 435 239 410 151 q 448 400 448 282 l 448 749 l 647 749 l 647 0 "},"Ϋ":{"x_min":-0.5,"x_max":835.390625,"ha":913,"o":"m 609 1047 l 453 1047 l 453 1216 l 609 1216 l 609 1047 m 369 1047 l 212 1047 l 212 1216 l 369 1216 l 369 1047 m 835 1013 l 532 377 l 532 1 l 322 1 l 322 377 l 0 1013 l 207 1013 l 426 577 l 625 1013 l 835 1013 "},"φ":{"x_min":-1,"x_max":921,"ha":990,"o":"m 542 -277 l 367 -277 l 367 -22 q 99 92 200 -22 q -1 376 -1 207 q 72 627 -1 520 q 288 769 151 742 l 288 581 q 222 495 243 551 q 202 379 202 440 q 240 229 202 291 q 367 146 285 158 l 367 776 l 515 776 q 807 667 694 776 q 921 379 921 558 q 815 93 921 209 q 542 -22 710 -22 l 542 -277 m 542 146 q 672 225 625 146 q 713 381 713 291 q 671 536 713 470 q 542 611 624 611 l 542 146 "},"Ί":{"x_min":-0.109375,"x_max":619,"ha":732,"o":"m 313 1035 l 98 781 l 0 781 l 136 1035 l 313 1035 m 619 0 l 411 0 l 411 1013 l 619 1013 l 619 0 "},"Β":{"x_min":0,"x_max":835,"ha":961,"o":"m 674 547 q 791 450 747 518 q 835 304 835 383 q 717 75 835 158 q 461 0 612 0 l 0 0 l 0 1013 l 477 1013 q 697 951 609 1013 q 797 754 797 880 q 765 630 797 686 q 674 547 734 575 m 438 621 q 538 646 495 621 q 590 730 590 676 q 537 814 590 785 q 436 838 494 838 l 199 838 l 199 621 l 438 621 m 445 182 q 560 211 513 182 q 618 311 618 247 q 565 410 618 375 q 444 446 512 446 l 199 446 l 199 182 l 445 182 "},"ϊ":{"x_min":-55,"x_max":338,"ha":389,"o":"m 338 810 l 209 810 l 209 952 l 338 952 l 338 810 m 74 810 l -55 810 l -55 952 l 74 952 l 74 810 m 242 0 l 42 0 l 42 749 l 242 749 l 242 0 "},"ά":{"x_min":-1,"x_max":722,"ha":835,"o":"m 722 0 l 530 0 l 530 101 q 433 8 491 41 q 304 -25 375 -25 q 72 104 157 -25 q -1 372 -1 216 q 72 643 -1 530 q 308 775 158 775 q 433 744 375 775 q 528 656 491 713 l 528 750 l 722 750 l 722 0 m 361 601 q 233 527 277 601 q 196 375 196 464 q 232 224 196 288 q 358 144 277 144 q 487 217 441 144 q 528 370 528 281 q 489 523 528 457 q 361 601 443 601 m 579 1038 l 377 824 l 279 824 l 401 1038 l 579 1038 "},"π":{"x_min":0,"x_max":839,"ha":938,"o":"m 839 593 l 750 593 l 750 0 l 549 0 l 549 593 l 286 593 l 286 0 l 87 0 l 87 593 l 0 593 l 0 749 l 839 749 l 839 593 "},"υ":{"x_min":0,"x_max":656,"ha":767,"o":"m 656 416 q 568 55 656 145 q 326 -25 490 -25 q 59 97 137 -25 q 0 369 0 191 l 0 748 l 200 748 l 200 369 q 216 222 200 268 q 326 141 245 141 q 440 247 411 141 q 456 422 456 304 l 456 748 l 656 748 l 656 416 "},"χ":{"x_min":0,"x_max":759.71875,"ha":847,"o":"m 759 -299 l 548 -299 l 379 66 l 215 -299 l 0 -299 l 261 232 l 13 748 l 230 748 l 379 399 l 527 748 l 738 748 l 500 238 l 759 -299 "},"ί":{"x_min":42,"x_max":371.15625,"ha":389,"o":"m 242 0 l 42 0 l 42 749 l 242 749 l 242 0 m 371 1039 l 169 824 l 71 824 l 193 1039 l 371 1039 "},"κ":{"x_min":0,"x_max":691.84375,"ha":779,"o":"m 691 0 l 479 0 l 284 343 l 196 252 l 196 0 l 0 0 l 0 749 l 196 749 l 196 490 l 440 749 l 677 749 l 416 479 l 691 0 "},"ψ":{"x_min":0,"x_max":875,"ha":979,"o":"m 524 142 q 657 274 621 163 q 670 352 670 316 l 670 748 l 875 748 l 875 402 q 806 134 875 239 q 525 -22 719 -1 l 525 -278 l 349 -278 l 349 -22 q 65 135 152 -1 q 0 402 0 238 l 0 748 l 204 748 l 204 352 q 231 239 204 295 q 353 142 272 159 l 353 922 l 524 922 l 524 142 "},"Ζ":{"x_min":0,"x_max":804,"ha":886,"o":"m 804 836 l 251 183 l 793 183 l 793 1 l 0 1 l 0 177 l 551 830 l 11 830 l 11 1013 l 804 1013 l 804 836 "},"η":{"x_min":0,"x_max":669,"ha":779,"o":"m 669 -277 l 469 -277 l 469 390 q 448 526 469 473 q 348 606 417 606 q 244 553 288 606 q 201 441 201 501 l 201 0 l 0 0 l 0 749 l 201 749 l 201 665 q 301 744 244 715 q 423 774 359 774 q 606 685 538 774 q 669 485 669 603 l 669 -277 "}}}
